
<!-- Generated by graphviz version 2.40.1 (20161225.0304)
 -->
<!-- Title: Argument Map Pages: 1 -->
<svg width="720pt" height="288pt"
 viewBox="0.00 0.00 720.00 287.71" xmlns="http://www.w3.org/2000/svg" xmlns:xlink="http://www.w3.org/1999/xlink">
<g id="graph0" class="graph" transform="scale(.3629 .3629) rotate(0) translate(4 788.8)">
<title>Argument Map</title>
<g id="clust1" class="cluster">
<title>cluster_1</title>
<polygon fill="#dadada" stroke="#dadada" points="8,-8 8,-776.8 1968,-776.8 1968,-8 8,-8"/>
<text text-anchor="start" x="864.6298" y="-762" font-family="arial" font-size="12.00" fill="#000000">Arguments for the existence of the soul, Part II</text>
</g>
<g id="clust2" class="cluster">
<title>cluster_2</title>
<polygon fill="#bababa" stroke="#bababa" points="1320,-18 1320,-746.4 1960,-746.4 1960,-18 1320,-18"/>
<text text-anchor="start" x="1623.9956" y="-731.6" font-family="arial" font-size="12.00" fill="#000000">Part 1</text>
</g>
<g id="clust3" class="cluster">
<title>cluster_3</title>
<polygon fill="#bababa" stroke="#bababa" points="664,-16 664,-362.4 1312,-362.4 1312,-16 664,-16"/>
<text text-anchor="start" x="971.9956" y="-347.6" font-family="arial" font-size="12.00" fill="#000000">Part 2</text>
</g>
<g id="clust4" class="cluster">
<title>cluster_4</title>
<polygon fill="#bababa" stroke="#bababa" points="16,-48 16,-246.4 656,-246.4 656,-48 16,-48"/>
<text text-anchor="start" x="319.9956" y="-231.6" font-family="arial" font-size="12.00" fill="#000000">Part 3</text>
</g>
<!-- n0 -->
<g id="node1" class="node">
<title>n0</title>
<path fill="#ffffff" stroke="#63aef2" stroke-width="2" d="M1940,-468C1940,-468 1768,-468 1768,-468 1762,-468 1756,-462 1756,-456 1756,-456 1756,-428 1756,-428 1756,-422 1762,-416 1768,-416 1768,-416 1940,-416 1940,-416 1946,-416 1952,-422 1952,-428 1952,-428 1952,-456 1952,-456 1952,-462 1946,-468 1940,-468"/>
<text text-anchor="start" x="1847.886" y="-454" font-family="arial" font-weight="bold" font-size="10.00" fill="#000000">P1</text>
<text text-anchor="start" x="1773.982" y="-437" font-family="arial" font-size="10.00" fill="#000000">The natural inclination here is to say</text>
<text text-anchor="start" x="1768.694" y="-425" font-family="arial" font-size="10.00" fill="#000000"> that these robots are feeling emotion. </text>
</g>
<!-- n11 -->
<g id="node7" class="node">
<title>n11</title>
<path fill="#63aef2" stroke="#000000" d="M1725.5,-616C1725.5,-616 1552.5,-616 1552.5,-616 1546.5,-616 1540.5,-610 1540.5,-604 1540.5,-604 1540.5,-540 1540.5,-540 1540.5,-534 1546.5,-528 1552.5,-528 1552.5,-528 1725.5,-528 1725.5,-528 1731.5,-528 1737.5,-534 1737.5,-540 1737.5,-540 1737.5,-604 1737.5,-604 1737.5,-610 1731.5,-616 1725.5,-616"/>
<text text-anchor="start" x="1589.768" y="-602" font-family="arial" font-weight="bold" font-size="10.00" fill="#000000">Physicalist response 1</text>
<text text-anchor="start" x="1555.6105" y="-585" font-family="arial" font-size="10.00" fill="#000000">Douglas Adams&#39; Hitchhiker&#39;s Guide to</text>
<text text-anchor="start" x="1562.26" y="-573" font-family="arial" font-size="10.00" fill="#000000"> Galaxy has robot Marvin that feels</text>
<text text-anchor="start" x="1550.861" y="-561" font-family="arial" font-size="10.00" fill="#000000"> depressed. That&#39;s how he behaves and</text>
<text text-anchor="start" x="1559.21" y="-549" font-family="arial" font-size="10.00" fill="#000000"> that&#39;s why we ascribe depression to</text>
<text text-anchor="start" x="1627.278" y="-537" font-family="arial" font-size="10.00" fill="#000000"> him. </text>
</g>
<!-- n0&#45;&gt;n11 -->
<g id="edge1" class="edge">
<title>n0&#45;&gt;n11</title>
<path fill="none" stroke="#00ff00" d="M1810.7502,-468.1511C1784.8583,-483.8066 1751.1119,-504.2114 1720.3929,-522.7857"/>
<polygon fill="#00ff00" stroke="#00ff00" points="1718.5642,-519.8013 1711.8179,-527.9706 1722.1862,-525.7914 1718.5642,-519.8013"/>
</g>
<!-- n13 -->
<g id="node9" class="node">
<title>n13</title>
<path fill="#63aef2" stroke="#000000" d="M1940,-616C1940,-616 1768,-616 1768,-616 1762,-616 1756,-610 1756,-604 1756,-604 1756,-540 1756,-540 1756,-534 1762,-528 1768,-528 1768,-528 1940,-528 1940,-528 1946,-528 1952,-534 1952,-540 1952,-540 1952,-604 1952,-604 1952,-610 1946,-616 1940,-616"/>
<text text-anchor="start" x="1804.268" y="-602" font-family="arial" font-weight="bold" font-size="10.00" fill="#000000">Physicalist response 2</text>
<text text-anchor="start" x="1770.638" y="-585" font-family="arial" font-size="10.00" fill="#000000">2001 Space Odyssey has a computer</text>
<text text-anchor="start" x="1785.3685" y="-573" font-family="arial" font-size="10.00" fill="#000000"> called HAL that says that he is</text>
<text text-anchor="start" x="1777.3115" y="-561" font-family="arial" font-size="10.00" fill="#000000"> afraid, as he is being switched off.</text>
<text text-anchor="start" x="1773.7" y="-549" font-family="arial" font-size="10.00" fill="#000000"> HAL is behaving the way you would</text>
<text text-anchor="start" x="1782.0325" y="-537" font-family="arial" font-size="10.00" fill="#000000"> expect it to behave if it felt fear. </text>
</g>
<!-- n0&#45;&gt;n13 -->
<g id="edge4" class="edge">
<title>n0&#45;&gt;n13</title>
<path fill="none" stroke="#00ff00" d="M1854,-468.3074C1854,-482.4387 1854,-500.4062 1854,-517.4"/>
<polygon fill="#00ff00" stroke="#00ff00" points="1850.5001,-517.8122 1854,-527.8122 1857.5001,-517.8122 1850.5001,-517.8122"/>
</g>
<!-- n1 -->
<g id="node2" class="node">
<title>n1</title>
<path fill="#ffffff" stroke="#52b77f" stroke-width="2" d="M1512,-354C1512,-354 1340,-354 1340,-354 1334,-354 1328,-348 1328,-342 1328,-342 1328,-282 1328,-282 1328,-276 1334,-270 1340,-270 1340,-270 1512,-270 1512,-270 1518,-270 1524,-276 1524,-282 1524,-282 1524,-342 1524,-342 1524,-348 1518,-354 1512,-354"/>
<text text-anchor="start" x="1339.3175" y="-339" font-family="arial" font-size="10.00" fill="#000000">Does a blind person really know what it</text>
<text text-anchor="start" x="1350.146" y="-327" font-family="arial" font-size="10.00" fill="#000000"> is like to see the color? Even if he</text>
<text text-anchor="start" x="1358.2045" y="-315" font-family="arial" font-size="10.00" fill="#000000"> is scientifically taught that one</text>
<text text-anchor="start" x="1352.366" y="-303" font-family="arial" font-size="10.00" fill="#000000"> object is red and another is blue,</text>
<text text-anchor="start" x="1346.816" y="-291" font-family="arial" font-size="10.00" fill="#000000"> does he really experience what it is</text>
<text text-anchor="start" x="1389.323" y="-279" font-family="arial" font-size="10.00" fill="#000000"> like to see red? </text>
</g>
<!-- n12 -->
<g id="node8" class="node">
<title>n12</title>
<path fill="#52b77f" stroke="#000000" d="M1726,-492C1726,-492 1554,-492 1554,-492 1548,-492 1542,-486 1542,-480 1542,-480 1542,-404 1542,-404 1542,-398 1548,-392 1554,-392 1554,-392 1726,-392 1726,-392 1732,-392 1738,-398 1738,-404 1738,-404 1738,-480 1738,-480 1738,-486 1732,-492 1726,-492"/>
<text text-anchor="start" x="1598.6025" y="-478" font-family="arial" font-weight="bold" font-size="10.00" fill="#000000">Dualist response 1</text>
<text text-anchor="start" x="1568.869" y="-461" font-family="arial" font-size="10.00" fill="#000000">There is a behavioural aspect of</text>
<text text-anchor="start" x="1564.9765" y="-449" font-family="arial" font-size="10.00" fill="#000000"> feeling emotions, and there is the</text>
<text text-anchor="start" x="1553.037" y="-437" font-family="arial" font-size="10.00" fill="#000000"> experience of it. No mere machine can</text>
<text text-anchor="start" x="1557.2005" y="-425" font-family="arial" font-size="10.00" fill="#000000"> possibly have qualitative experience,</text>
<text text-anchor="start" x="1566.369" y="-413" font-family="arial" font-size="10.00" fill="#000000"> but humans have it. Humans are</text>
<text text-anchor="start" x="1555.8165" y="-401" font-family="arial" font-size="10.00" fill="#000000"> therefore no merely physical objects. </text>
</g>
<!-- n1&#45;&gt;n12 -->
<g id="edge5" class="edge">
<title>n1&#45;&gt;n12</title>
<path fill="none" stroke="#00ff00" d="M1495.1841,-354.0277C1512.2899,-364.4191 1530.8754,-375.7093 1548.8505,-386.6288"/>
<polygon fill="#00ff00" stroke="#00ff00" points="1547.2527,-389.7534 1557.6165,-391.954 1550.8871,-383.7707 1547.2527,-389.7534"/>
</g>
<!-- n2 -->
<g id="node3" class="node">
<title>n2</title>
<path fill="#ffffff" stroke="#52b77f" stroke-width="2" d="M1940,-336C1940,-336 1768,-336 1768,-336 1762,-336 1756,-330 1756,-324 1756,-324 1756,-300 1756,-300 1756,-294 1762,-288 1768,-288 1768,-288 1940,-288 1940,-288 1946,-288 1952,-294 1952,-300 1952,-300 1952,-324 1952,-324 1952,-330 1946,-336 1940,-336"/>
<text text-anchor="start" x="1769.8075" y="-321" font-family="arial" font-size="10.00" fill="#000000">What about smell of a pineapple? Etc.</text>
<text text-anchor="start" x="1779.831" y="-309" font-family="arial" font-size="10.00" fill="#000000"> These things are called &#39;Qualia&#39; &#45;</text>
<text text-anchor="start" x="1788.4235" y="-297" font-family="arial" font-size="10.00" fill="#000000"> qualitative aspects of things. </text>
</g>
<!-- n2&#45;&gt;n12 -->
<g id="edge6" class="edge">
<title>n2&#45;&gt;n12</title>
<path fill="none" stroke="#00ff00" d="M1814.2498,-336.1473C1790.8168,-350.3823 1760.1474,-369.0133 1731.081,-386.6704"/>
<polygon fill="#00ff00" stroke="#00ff00" points="1729.2582,-383.6825 1722.5287,-391.8657 1732.8925,-389.6651 1729.2582,-383.6825"/>
</g>
<!-- n3 -->
<g id="node4" class="node">
<title>n3</title>
<path fill="#ffffff" stroke="#63aef2" stroke-width="2" d="M1730.5,-232C1730.5,-232 1549.5,-232 1549.5,-232 1543.5,-232 1537.5,-226 1537.5,-220 1537.5,-220 1537.5,-172 1537.5,-172 1537.5,-166 1543.5,-160 1549.5,-160 1549.5,-160 1730.5,-160 1730.5,-160 1736.5,-160 1742.5,-166 1742.5,-172 1742.5,-172 1742.5,-220 1742.5,-220 1742.5,-226 1736.5,-232 1730.5,-232"/>
<text text-anchor="start" x="1552.1555" y="-217" font-family="arial" font-size="10.00" fill="#000000">This is why we should not be dismissive</text>
<text text-anchor="start" x="1566.0415" y="-205" font-family="arial" font-size="10.00" fill="#000000"> of the dualist viewpoint. We don&#39;t</text>
<text text-anchor="start" x="1547.6855" y="-193" font-family="arial" font-size="10.00" fill="#000000"> know enough about consciousness yet to</text>
<text text-anchor="start" x="1573.814" y="-181" font-family="arial" font-size="10.00" fill="#000000"> know whether or not it can be</text>
<text text-anchor="start" x="1576.3225" y="-169" font-family="arial" font-size="10.00" fill="#000000"> explained in physical terms. </text>
</g>
<!-- n14 -->
<g id="node10" class="node">
<title>n14</title>
<path fill="#63aef2" stroke="#000000" d="M1726,-356C1726,-356 1554,-356 1554,-356 1548,-356 1542,-350 1542,-344 1542,-344 1542,-280 1542,-280 1542,-274 1548,-268 1554,-268 1554,-268 1726,-268 1726,-268 1732,-268 1738,-274 1738,-280 1738,-280 1738,-344 1738,-344 1738,-350 1732,-356 1726,-356"/>
<text text-anchor="start" x="1592.4975" y="-342" font-family="arial" font-weight="bold" font-size="10.00" fill="#000000">Physicalist admission</text>
<text text-anchor="start" x="1558.7705" y="-325" font-family="arial" font-size="10.00" fill="#000000">Ideally we should say &quot;Here&#39;s how to</text>
<text text-anchor="start" x="1553.861" y="-313" font-family="arial" font-size="10.00" fill="#000000"> build a machine that can be conscious</text>
<text text-anchor="start" x="1561.5415" y="-301" font-family="arial" font-size="10.00" fill="#000000"> in this sense&quot; ... But we don&#39;t know</text>
<text text-anchor="start" x="1572.489" y="-289" font-family="arial" font-size="10.00" fill="#000000"> how to explain it in Physicalist</text>
<text text-anchor="start" x="1623.3335" y="-277" font-family="arial" font-size="10.00" fill="#000000"> terms. </text>
</g>
<!-- n3&#45;&gt;n14 -->
<g id="edge8" class="edge">
<title>n3&#45;&gt;n14</title>
<path fill="none" stroke="#00ff00" d="M1640,-232.0673C1640,-240.1937 1640,-248.9938 1640,-257.6832"/>
<polygon fill="#00ff00" stroke="#00ff00" points="1636.5001,-257.786 1640,-267.786 1643.5001,-257.786 1636.5001,-257.786"/>
</g>
<!-- n4 -->
<g id="node5" class="node">
<title>n4</title>
<path fill="#ffffff" stroke="#63aef2" stroke-width="2" d="M1726,-122C1726,-122 1554,-122 1554,-122 1548,-122 1542,-116 1542,-110 1542,-110 1542,-38 1542,-38 1542,-32 1548,-26 1554,-26 1554,-26 1726,-26 1726,-26 1732,-26 1738,-32 1738,-38 1738,-38 1738,-110 1738,-110 1738,-116 1732,-122 1726,-122"/>
<text text-anchor="start" x="1559.712" y="-107" font-family="arial" font-size="10.00" fill="#000000">It is very important to remember that</text>
<text text-anchor="start" x="1572.2045" y="-95" font-family="arial" font-size="10.00" fill="#000000"> we are not looking for just any</text>
<text text-anchor="start" x="1576.919" y="-83" font-family="arial" font-size="10.00" fill="#000000"> explanation, but for the best</text>
<text text-anchor="start" x="1574.148" y="-71" font-family="arial" font-size="10.00" fill="#000000"> explanation. How much of an</text>
<text text-anchor="start" x="1579.703" y="-59" font-family="arial" font-size="10.00" fill="#000000"> explanation is it to say that</text>
<text text-anchor="start" x="1551.635" y="-47" font-family="arial" font-size="10.00" fill="#000000"> consciousness is not based in the body</text>
<text text-anchor="start" x="1575.5435" y="-35" font-family="arial" font-size="10.00" fill="#000000"> but in the soul? (physicalist) </text>
</g>
<!-- n4&#45;&gt;n3 -->
<g id="edge7" class="edge">
<title>n4&#45;&gt;n3</title>
<path fill="none" stroke="#ff0000" d="M1640,-122.2176C1640,-131.2175 1640,-140.6059 1640,-149.5511"/>
<polygon fill="#ff0000" stroke="#ff0000" points="1636.5001,-149.7984 1640,-159.7984 1643.5001,-149.7985 1636.5001,-149.7984"/>
</g>
<!-- n10 -->
<g id="node6" class="node">
<title>n10</title>
<path fill="#52b77f" stroke="#000000" d="M1834,-716C1834,-716 1656,-716 1656,-716 1650,-716 1644,-710 1644,-704 1644,-704 1644,-664 1644,-664 1644,-658 1650,-652 1656,-652 1656,-652 1834,-652 1834,-652 1840,-652 1846,-658 1846,-664 1846,-664 1846,-704 1846,-704 1846,-710 1840,-716 1834,-716"/>
<text text-anchor="start" x="1703.0485" y="-702" font-family="arial" font-weight="bold" font-size="10.00" fill="#000000">Dualist argument 1</text>
<text text-anchor="start" x="1665.2605" y="-685" font-family="arial" font-size="10.00" fill="#000000">No purely physical object could feel.</text>
<text text-anchor="start" x="1653.8675" y="-673" font-family="arial" font-size="10.00" fill="#000000"> Humans can feel. Therefore humans are</text>
<text text-anchor="start" x="1682.207" y="-661" font-family="arial" font-size="10.00" fill="#000000"> not purely physical objects. </text>
</g>
<!-- n11&#45;&gt;n10 -->
<g id="edge3" class="edge">
<title>n11&#45;&gt;n10</title>
<path fill="none" stroke="#ff0000" d="M1680.894,-616.2654C1689.6647,-625.5326 1698.8603,-635.2487 1707.4607,-644.3358"/>
<polygon fill="#ff0000" stroke="#ff0000" points="1705.1067,-646.9403 1714.5226,-651.7974 1710.1907,-642.1286 1705.1067,-646.9403"/>
</g>
<!-- n12&#45;&gt;n11 -->
<g id="edge2" class="edge">
<title>n12&#45;&gt;n11</title>
<path fill="none" stroke="#ff0000" d="M1639.6134,-492.2614C1639.5493,-500.5919 1639.4826,-509.2634 1639.4178,-517.6885"/>
<polygon fill="#ff0000" stroke="#ff0000" points="1635.9171,-517.777 1639.34,-527.8037 1642.9169,-517.8309 1635.9171,-517.777"/>
</g>
<!-- n12&#45;&gt;n13 -->
<g id="edge10" class="edge">
<title>n12&#45;&gt;n13</title>
<path fill="none" stroke="#ff0000" d="M1722.4319,-492.0754C1738.824,-502.0333 1756.0293,-512.4851 1772.3936,-522.426"/>
<polygon fill="#ff0000" stroke="#ff0000" points="1771.0241,-525.6892 1781.3878,-527.8898 1774.6584,-519.7066 1771.0241,-525.6892"/>
</g>
<!-- n13&#45;&gt;n10 -->
<g id="edge11" class="edge">
<title>n13&#45;&gt;n10</title>
<path fill="none" stroke="#ff0000" d="M1810.9203,-616.2654C1801.8112,-625.6252 1792.2563,-635.443 1783.3366,-644.6082"/>
<polygon fill="#ff0000" stroke="#ff0000" points="1780.8062,-642.19 1776.34,-651.7974 1785.8227,-647.0721 1780.8062,-642.19"/>
</g>
<!-- n14&#45;&gt;n12 -->
<g id="edge9" class="edge">
<title>n14&#45;&gt;n12</title>
<path fill="none" stroke="#00ff00" d="M1640,-356.0121C1640,-364.2712 1640,-373.0368 1640,-381.6909"/>
<polygon fill="#00ff00" stroke="#00ff00" points="1636.5001,-381.7618 1640,-391.7619 1643.5001,-381.7619 1636.5001,-381.7618"/>
</g>
<!-- n5 -->
<g id="node11" class="node">
<title>n5</title>
<path fill="#ffffff" stroke="#63aef2" stroke-width="2" d="M856,-92C856,-92 684,-92 684,-92 678,-92 672,-86 672,-80 672,-80 672,-68 672,-68 672,-62 678,-56 684,-56 684,-56 856,-56 856,-56 862,-56 868,-62 868,-68 868,-68 868,-80 868,-80 868,-86 862,-92 856,-92"/>
<text text-anchor="start" x="686.93" y="-77" font-family="arial" font-size="10.00" fill="#000000">When chess program Deep Fritz beat</text>
<text text-anchor="start" x="702.2135" y="-65" font-family="arial" font-size="10.00" fill="#000000"> Kramnik it was being creative </text>
</g>
<!-- n16 -->
<g id="node14" class="node">
<title>n16</title>
<path fill="#63aef2" stroke="#000000" d="M1070,-216C1070,-216 898,-216 898,-216 892,-216 886,-210 886,-204 886,-204 886,-188 886,-188 886,-182 892,-176 898,-176 898,-176 1070,-176 1070,-176 1076,-176 1082,-182 1082,-188 1082,-188 1082,-204 1082,-204 1082,-210 1076,-216 1070,-216"/>
<text text-anchor="start" x="934.268" y="-202" font-family="arial" font-weight="bold" font-size="10.00" fill="#000000">Physicalist response 3</text>
<text text-anchor="start" x="913.9825" y="-185" font-family="arial" font-size="10.00" fill="#000000">Machines can also be creative. </text>
</g>
<!-- n5&#45;&gt;n16 -->
<g id="edge12" class="edge">
<title>n5&#45;&gt;n16</title>
<path fill="none" stroke="#00ff00" d="M801.5764,-92.0015C838.1877,-112.8733 898.7685,-147.4101 939.9864,-170.9082"/>
<polygon fill="#00ff00" stroke="#00ff00" points="938.3088,-173.9805 948.7297,-175.8926 941.7757,-167.8993 938.3088,-173.9805"/>
</g>
<!-- n6 -->
<g id="node12" class="node">
<title>n6</title>
<path fill="#ffffff" stroke="#63aef2" stroke-width="2" d="M1292,-116C1292,-116 1112,-116 1112,-116 1106,-116 1100,-110 1100,-104 1100,-104 1100,-44 1100,-44 1100,-38 1106,-32 1112,-32 1112,-32 1292,-32 1292,-32 1298,-32 1304,-38 1304,-44 1304,-44 1304,-104 1304,-104 1304,-110 1298,-116 1292,-116"/>
<text text-anchor="start" x="1118.3675" y="-101" font-family="arial" font-size="10.00" fill="#000000">Software came up with a new proof of</text>
<text text-anchor="start" x="1109.7435" y="-89" font-family="arial" font-size="10.00" fill="#000000"> Pythagorean Theorem that nobody in the</text>
<text text-anchor="start" x="1113.0935" y="-77" font-family="arial" font-size="10.00" fill="#000000"> world has come up with before. Without</text>
<text text-anchor="start" x="1121.985" y="-65" font-family="arial" font-size="10.00" fill="#000000"> being predjudiced why can&#39;t we say</text>
<text text-anchor="start" x="1136.699" y="-53" font-family="arial" font-size="10.00" fill="#000000"> that the machine is not being</text>
<text text-anchor="start" x="1178.9395" y="-41" font-family="arial" font-size="10.00" fill="#000000"> creative? </text>
</g>
<!-- n6&#45;&gt;n16 -->
<g id="edge13" class="edge">
<title>n6&#45;&gt;n16</title>
<path fill="none" stroke="#00ff00" d="M1126.6715,-116.1563C1094.0223,-134.4279 1056.9037,-155.2007 1028.7127,-170.9773"/>
<polygon fill="#00ff00" stroke="#00ff00" points="1026.9076,-167.9766 1019.8904,-175.9145 1030.3262,-174.0851 1026.9076,-167.9766"/>
</g>
<!-- n15 -->
<g id="node13" class="node">
<title>n15</title>
<path fill="#52b77f" stroke="#000000" d="M1070,-332C1070,-332 898,-332 898,-332 892,-332 886,-326 886,-320 886,-320 886,-304 886,-304 886,-298 892,-292 898,-292 898,-292 1070,-292 1070,-292 1076,-292 1082,-298 1082,-304 1082,-304 1082,-320 1082,-320 1082,-326 1076,-332 1070,-332"/>
<text text-anchor="start" x="942.0485" y="-318" font-family="arial" font-weight="bold" font-size="10.00" fill="#000000">Dualist argument 2</text>
<text text-anchor="start" x="930.3705" y="-301" font-family="arial" font-size="10.00" fill="#000000">People can be creative. </text>
</g>
<!-- n16&#45;&gt;n15 -->
<g id="edge15" class="edge">
<title>n16&#45;&gt;n15</title>
<path fill="none" stroke="#00ff00" d="M984,-216.2057C984,-234.2257 984,-260.8669 984,-281.4827"/>
<polygon fill="#00ff00" stroke="#00ff00" points="980.5001,-281.6366 984,-291.6367 987.5001,-281.6367 980.5001,-281.6366"/>
</g>
<!-- n17 -->
<g id="node15" class="node">
<title>n17</title>
<path fill="#52b77f" stroke="#000000" d="M1070,-124C1070,-124 898,-124 898,-124 892,-124 886,-118 886,-112 886,-112 886,-36 886,-36 886,-30 892,-24 898,-24 898,-24 1070,-24 1070,-24 1076,-24 1082,-30 1082,-36 1082,-36 1082,-112 1082,-112 1082,-118 1076,-124 1070,-124"/>
<text text-anchor="start" x="942.6025" y="-110" font-family="arial" font-weight="bold" font-size="10.00" fill="#000000">Dualist response 2</text>
<text text-anchor="start" x="903.4915" y="-93" font-family="arial" font-size="10.00" fill="#000000">Even if a program is being &quot;creative&quot;</text>
<text text-anchor="start" x="906.2125" y="-81" font-family="arial" font-size="10.00" fill="#000000"> it is just automatically following the</text>
<text text-anchor="start" x="911.4795" y="-69" font-family="arial" font-size="10.00" fill="#000000"> code. All the computer can do is</text>
<text text-anchor="start" x="905.3775" y="-57" font-family="arial" font-size="10.00" fill="#000000"> automatically follow the program. It</text>
<text text-anchor="start" x="902.321" y="-45" font-family="arial" font-size="10.00" fill="#000000"> doesn&#39;t have free will. Humans have</text>
<text text-anchor="start" x="962.891" y="-33" font-family="arial" font-size="10.00" fill="#000000"> free will. </text>
</g>
<!-- n17&#45;&gt;n16 -->
<g id="edge14" class="edge">
<title>n17&#45;&gt;n16</title>
<path fill="none" stroke="#ff0000" d="M984,-124.3264C984,-138.3379 984,-153.1249 984,-165.6051"/>
<polygon fill="#ff0000" stroke="#ff0000" points="980.5001,-165.9011 984,-175.9012 987.5001,-165.9012 980.5001,-165.9011"/>
</g>
<!-- n7 -->
<g id="node16" class="node">
<title>n7</title>
<path fill="#ffffff" stroke="#52b77f" stroke-width="2" d="M208,-92C208,-92 36,-92 36,-92 30,-92 24,-86 24,-80 24,-80 24,-68 24,-68 24,-62 30,-56 36,-56 36,-56 208,-56 208,-56 214,-56 220,-62 220,-68 220,-68 220,-80 220,-80 220,-86 214,-92 208,-92"/>
<text text-anchor="start" x="82.5535" y="-71" font-family="arial" font-size="10.00" fill="#000000">We have free will </text>
</g>
<!-- n18 -->
<g id="node19" class="node">
<title>n18</title>
<path fill="#52b77f" stroke="#000000" d="M422,-216C422,-216 250,-216 250,-216 244,-216 238,-210 238,-204 238,-204 238,-188 238,-188 238,-182 244,-176 250,-176 250,-176 422,-176 422,-176 428,-176 434,-182 434,-188 434,-188 434,-204 434,-204 434,-210 428,-216 422,-216"/>
<text text-anchor="start" x="294.0485" y="-202" font-family="arial" font-weight="bold" font-size="10.00" fill="#000000">Dualist argument 4</text>
<text text-anchor="start" x="252.93" y="-185" font-family="arial" font-size="10.00" fill="#000000">We are not a purely physical system. </text>
</g>
<!-- n7&#45;&gt;n18 -->
<g id="edge16" class="edge">
<title>n7&#45;&gt;n18</title>
<path fill="none" stroke="#00ff00" d="M153.5764,-92.0015C190.1877,-112.8733 250.7685,-147.4101 291.9864,-170.9082"/>
<polygon fill="#00ff00" stroke="#00ff00" points="290.3088,-173.9805 300.7297,-175.8926 293.7757,-167.8993 290.3088,-173.9805"/>
</g>
<!-- n8 -->
<g id="node17" class="node">
<title>n8</title>
<path fill="#ffffff" stroke="#52b77f" stroke-width="2" d="M636,-92C636,-92 464,-92 464,-92 458,-92 452,-86 452,-80 452,-80 452,-68 452,-68 452,-62 458,-56 464,-56 464,-56 636,-56 636,-56 642,-56 648,-62 648,-68 648,-68 648,-80 648,-80 648,-86 642,-92 636,-92"/>
<text text-anchor="start" x="461.9275" y="-77" font-family="arial" font-size="10.00" fill="#000000">Nothing subject to determinism has free</text>
<text text-anchor="start" x="540.283" y="-65" font-family="arial" font-size="10.00" fill="#000000"> will </text>
</g>
<!-- n8&#45;&gt;n18 -->
<g id="edge17" class="edge">
<title>n8&#45;&gt;n18</title>
<path fill="none" stroke="#00ff00" d="M518.4236,-92.0015C481.8123,-112.8733 421.2315,-147.4101 380.0136,-170.9082"/>
<polygon fill="#00ff00" stroke="#00ff00" points="378.2243,-167.8993 371.2703,-175.8926 381.6912,-173.9805 378.2243,-167.8993"/>
</g>
<!-- n9 -->
<g id="node18" class="node">
<title>n9</title>
<path fill="#ffffff" stroke="#52b77f" stroke-width="2" d="M422,-92C422,-92 250,-92 250,-92 244,-92 238,-86 238,-80 238,-80 238,-68 238,-68 238,-62 244,-56 250,-56 250,-56 422,-56 422,-56 428,-56 434,-62 434,-68 434,-68 434,-80 434,-80 434,-86 428,-92 422,-92"/>
<text text-anchor="start" x="250.4345" y="-77" font-family="arial" font-size="10.00" fill="#000000">All purely physical systems are subject</text>
<text text-anchor="start" x="300.4425" y="-65" font-family="arial" font-size="10.00" fill="#000000"> to determinism </text>
</g>
<!-- n9&#45;&gt;n18 -->
<g id="edge18" class="edge">
<title>n9&#45;&gt;n18</title>
<path fill="none" stroke="#00ff00" d="M336,-92.0015C336,-111.4294 336,-142.6968 336,-165.8809"/>
<polygon fill="#00ff00" stroke="#00ff00" points="332.5001,-165.8926 336,-175.8926 339.5001,-165.8927 332.5001,-165.8926"/>
</g>
</g>
</svg>
